<svg width="23" height="24" viewBox="0 0 23 24" fill="none" xmlns="http://www.w3.org/2000/svg">
<path d="M9.39638 4.4541L3.35404 11.2041C3.26016 11.3086 3.18567 11.4328 3.13484 11.5696C3.08401 11.7063 3.05784 11.8529 3.05784 12.001C3.05784 12.149 3.08401 12.2957 3.13484 12.4324C3.18567 12.5691 3.26016 12.6933 3.35404 12.7979L9.39638 19.5479C9.58557 19.7592 9.84216 19.8779 10.1097 19.8779C10.3773 19.8779 10.6339 19.7592 10.823 19.5479C11.0122 19.3365 11.1185 19.0499 11.1185 18.751C11.1185 18.4521 11.0122 18.1654 10.823 17.9541L6.50025 13.125L18.8367 13.125C19.1038 13.125 19.3599 13.0065 19.5488 12.7955C19.7376 12.5846 19.8437 12.2984 19.8437 12C19.8437 11.7017 19.7376 11.4155 19.5488 11.2045C19.3599 10.9936 19.1038 10.875 18.8367 10.875L6.50025 10.875L10.8239 6.04598C11.0131 5.83463 11.1194 5.54799 11.1194 5.2491C11.1194 4.95022 11.0131 4.66357 10.8239 4.45223C10.6347 4.24088 10.3781 4.12215 10.1105 4.12215C9.843 4.12215 9.58641 4.24088 9.39722 4.45223L9.39638 4.4541Z" fill="black"/>
</svg>
