<svg width="18" height="16" viewBox="0 0 18 16" fill="none" xmlns="http://www.w3.org/2000/svg">
<path d="M11.3133 0.454104L17.3557 7.2041C17.4496 7.30862 17.5241 7.43281 17.5749 7.56956C17.6257 7.7063 17.6519 7.85291 17.6519 8.00098C17.6519 8.14904 17.6257 8.29565 17.5749 8.4324C17.5241 8.56915 17.4496 8.69334 17.3557 8.79785L11.3133 15.5479C11.1242 15.7592 10.8676 15.8779 10.6 15.8779C10.3325 15.8779 10.0759 15.7592 9.88667 15.5479C9.69749 15.3365 9.5912 15.0499 9.5912 14.751C9.5912 14.4521 9.69749 14.1654 9.88667 13.9541L14.2095 9.12504L1.87302 9.12504C1.60594 9.12504 1.34979 9.00651 1.16093 8.79554C0.972067 8.58456 0.865967 8.29841 0.865967 8.00004C0.865967 7.70167 0.972067 7.41552 1.16093 7.20455C1.34979 6.99357 1.60594 6.87504 1.87302 6.87504L14.2095 6.87504L9.88583 2.04598C9.69665 1.83463 9.59036 1.54799 9.59036 1.2491C9.59036 0.950218 9.69665 0.663574 9.88583 0.45223C10.075 0.240885 10.3316 0.122151 10.5992 0.122151C10.8667 0.122151 11.1233 0.240885 11.3125 0.45223L11.3133 0.454104Z" fill="black"/>
</svg>
